<svg xmlns="http://www.w3.org/2000/svg" xmlns:xlink="http://www.w3.org/1999/xlink" width="500" zoomAndPan="magnify" viewBox="0 0 375 374.999991" height="500" preserveAspectRatio="xMidYMid meet" version="1.0"><defs><clipPath id="0812b622f8"><path d="M 83 98 L 199 98 L 199 373 L 83 373 Z M 83 98 " clip-rule="nonzero"/></clipPath><clipPath id="f1371191a6"><path d="M 0.00390625 343.519531 L 112.460938 51.6875 L 280.421875 116.410156 L 167.964844 408.242188 Z M 0.00390625 343.519531 " clip-rule="nonzero"/></clipPath><clipPath id="a39e18975e"><path d="M 0.00390625 343.519531 L 112.460938 51.6875 L 280.421875 116.410156 L 167.964844 408.242188 Z M 0.00390625 343.519531 " clip-rule="nonzero"/></clipPath><clipPath id="f6a76349ee"><path d="M 115 96 L 230 96 L 230 368 L 115 368 Z M 115 96 " clip-rule="nonzero"/></clipPath><clipPath id="31e3d16158"><path d="M 0.00390625 343.519531 L 112.460938 51.6875 L 280.421875 116.410156 L 167.964844 408.242188 Z M 0.00390625 343.519531 " clip-rule="nonzero"/></clipPath><clipPath id="129d2beaa1"><path d="M 0.00390625 343.519531 L 112.460938 51.6875 L 280.421875 116.410156 L 167.964844 408.242188 Z M 0.00390625 343.519531 " clip-rule="nonzero"/></clipPath><clipPath id="b992dd2cef"><path d="M 14 307 L 110 307 L 110 345 L 14 345 Z M 14 307 " clip-rule="nonzero"/></clipPath><clipPath id="74105a42f4"><path d="M 0.00390625 343.519531 L 112.460938 51.6875 L 280.421875 116.410156 L 167.964844 408.242188 Z M 0.00390625 343.519531 " clip-rule="nonzero"/></clipPath><clipPath id="6ce62b571f"><path d="M 0.00390625 343.519531 L 112.460938 51.6875 L 280.421875 116.410156 L 167.964844 408.242188 Z M 0.00390625 343.519531 " clip-rule="nonzero"/></clipPath><clipPath id="6436cf5354"><path d="M 64 310 L 113 310 L 113 367 L 64 367 Z M 64 310 " clip-rule="nonzero"/></clipPath><clipPath id="d00f695c09"><path d="M 0.00390625 343.519531 L 112.460938 51.6875 L 280.421875 116.410156 L 167.964844 408.242188 Z M 0.00390625 343.519531 " clip-rule="nonzero"/></clipPath><clipPath id="0d89984b02"><path d="M 0.00390625 343.519531 L 112.460938 51.6875 L 280.421875 116.410156 L 167.964844 408.242188 Z M 0.00390625 343.519531 " clip-rule="nonzero"/></clipPath><clipPath id="26ef9e4cf4"><path d="M 91 276 L 115 276 L 115 301 L 91 301 Z M 91 276 " clip-rule="nonzero"/></clipPath><clipPath id="fa6d80a645"><path d="M 0.00390625 343.519531 L 112.460938 51.6875 L 280.421875 116.410156 L 167.964844 408.242188 Z M 0.00390625 343.519531 " clip-rule="nonzero"/></clipPath><clipPath id="99823ab695"><path d="M 0.00390625 343.519531 L 112.460938 51.6875 L 280.421875 116.410156 L 167.964844 408.242188 Z M 0.00390625 343.519531 " clip-rule="nonzero"/></clipPath><clipPath id="f0910d62cf"><path d="M 91 252 L 105 252 L 105 266 L 91 266 Z M 91 252 " clip-rule="nonzero"/></clipPath><clipPath id="c04597e610"><path d="M 0.00390625 343.519531 L 112.460938 51.6875 L 280.421875 116.410156 L 167.964844 408.242188 Z M 0.00390625 343.519531 " clip-rule="nonzero"/></clipPath><clipPath id="777555d4f0"><path d="M 0.00390625 343.519531 L 112.460938 51.6875 L 280.421875 116.410156 L 167.964844 408.242188 Z M 0.00390625 343.519531 " clip-rule="nonzero"/></clipPath><clipPath id="9f48aa1276"><path d="M 65 267 L 84 267 L 84 285 L 65 285 Z M 65 267 " clip-rule="nonzero"/></clipPath><clipPath id="80b25aeeab"><path d="M 0.00390625 343.519531 L 112.460938 51.6875 L 280.421875 116.410156 L 167.964844 408.242188 Z M 0.00390625 343.519531 " clip-rule="nonzero"/></clipPath><clipPath id="0d6771ac52"><path d="M 0.00390625 343.519531 L 112.460938 51.6875 L 280.421875 116.410156 L 167.964844 408.242188 Z M 0.00390625 343.519531 " clip-rule="nonzero"/></clipPath><clipPath id="4895962e80"><path d="M 26.679688 0 L 264 0 L 264 125 L 26.679688 125 Z M 26.679688 0 " clip-rule="nonzero"/></clipPath><clipPath id="ce6752ce88"><path d="M 179.105469 5.375 L 364.910156 5.375 L 364.910156 313.730469 L 179.105469 313.730469 Z M 179.105469 5.375 " clip-rule="nonzero"/></clipPath></defs><g clip-path="url(#0812b622f8)"><g clip-path="url(#f1371191a6)"><g clip-path="url(#a39e18975e)"><path fill="#3a73c1" d="M 83.203125 372.738281 C 159.847656 350.949219 144.667969 282.609375 136.835938 223.265625 C 129.898438 170.644531 145.015625 126.738281 198.578125 98.011719 C 133.859375 116.925781 110.558594 161.964844 117.234375 225.902344 C 122.699219 278.257812 144.828125 341.042969 83.203125 372.738281 " fill-opacity="1" fill-rule="evenodd"/></g></g></g><g clip-path="url(#f6a76349ee)"><g clip-path="url(#31e3d16158)"><g clip-path="url(#129d2beaa1)"><path fill="#00adef" d="M 115.285156 367.65625 C 191.699219 346.460938 176.242188 278.839844 168.160156 220.144531 C 161 168.101562 175.898438 124.765625 229.242188 96.609375 C 164.714844 115.019531 141.65625 159.433594 148.601562 222.667969 C 154.292969 274.441406 176.660156 336.605469 115.285156 367.65625 " fill-opacity="1" fill-rule="evenodd"/></g></g></g><g clip-path="url(#b992dd2cef)"><g clip-path="url(#74105a42f4)"><g clip-path="url(#6ce62b571f)"><path fill="#00adef" d="M 109.648438 307.007812 C 85.421875 323.695312 58.9375 328.40625 29.445312 317.179688 C 12.621094 310.785156 8.984375 336.929688 23.328125 341.179688 C 56.636719 351.046875 85.015625 337.800781 109.648438 307.007812 " fill-opacity="1" fill-rule="evenodd"/></g></g></g><g clip-path="url(#6436cf5354)"><g clip-path="url(#d00f695c09)"><g clip-path="url(#0d89984b02)"><path fill="#00adef" d="M 112.832031 310.234375 C 105.734375 329.914062 92.367188 343.605469 70.667969 349.324219 C 58.285156 352.59375 67.007812 369.21875 77.066406 365.738281 C 100.414062 357.652344 111.335938 338.242188 112.832031 310.234375 " fill-opacity="1" fill-rule="evenodd"/></g></g></g><g clip-path="url(#26ef9e4cf4)"><g clip-path="url(#fa6d80a645)"><g clip-path="url(#99823ab695)"><path fill="#00adef" d="M 92.25 284.265625 C 89.925781 290.300781 92.929688 297.082031 98.96875 299.40625 C 105.003906 301.734375 111.78125 298.726562 114.105469 292.6875 C 116.433594 286.65625 113.425781 279.875 107.390625 277.550781 C 101.355469 275.226562 94.574219 278.230469 92.25 284.265625 " fill-opacity="1" fill-rule="evenodd"/></g></g></g><g clip-path="url(#f0910d62cf)"><g clip-path="url(#c04597e610)"><g clip-path="url(#777555d4f0)"><path fill="#00adef" d="M 92.3125 256.945312 C 91.039062 260.25 92.6875 263.960938 95.992188 265.234375 C 99.296875 266.507812 103.007812 264.863281 104.28125 261.558594 C 105.554688 258.253906 103.90625 254.542969 100.601562 253.269531 C 97.296875 251.996094 93.585938 253.640625 92.3125 256.945312 " fill-opacity="1" fill-rule="evenodd"/></g></g></g><g clip-path="url(#9f48aa1276)"><g clip-path="url(#80b25aeeab)"><g clip-path="url(#0d6771ac52)"><path fill="#00adef" d="M 66.371094 272.84375 C 64.609375 277.417969 66.890625 282.558594 71.464844 284.320312 C 76.039062 286.082031 81.175781 283.804688 82.9375 279.230469 C 84.703125 274.65625 82.421875 269.515625 77.847656 267.753906 C 73.273438 265.992188 68.136719 268.269531 66.371094 272.84375 " fill-opacity="1" fill-rule="evenodd"/></g></g></g><g clip-path="url(#4895962e80)"><path fill="#00adef" d="M 261.8125 66.203125 C 257.957031 43.0625 247.398438 21.84375 231.097656 5.382812 C 221.039062 2.222656 210.335938 0.519531 199.238281 0.519531 L 26.679688 0.519531 L 66.832031 45.417969 L 66.851562 45.417969 L 137.246094 124.109375 L 93.542969 45.417969 L 186.929688 45.417969 C 225.492188 45.417969 256.753906 70.078125 256.753906 106.035156 C 256.753906 112.535156 255.726562 118.804688 253.820312 124.726562 C 255.785156 120.601562 257.558594 116.332031 258.898438 111.851562 C 263.753906 97.28125 263.753906 81.742188 261.8125 66.203125 " fill-opacity="1" fill-rule="nonzero"/></g><g clip-path="url(#ce6752ce88)"><path fill="#3a73c1" d="M 259.097656 194.53125 C 287.082031 175.394531 305.46875 143.25 305.46875 106.78125 C 305.46875 59.203125 274.199219 18.921875 231.097656 5.382812 C 247.398438 21.84375 257.957031 43.0625 261.8125 66.203125 C 263.753906 81.742188 263.753906 97.28125 258.898438 111.851562 C 257.558594 116.332031 255.785156 120.601562 253.820312 124.726562 C 249.320312 138.746094 239.890625 150.777344 227.40625 159.074219 L 227.402344 159.070312 C 226.011719 159.996094 224.582031 160.875 223.113281 161.703125 C 222.988281 161.773438 222.859375 161.84375 222.734375 161.914062 C 222.152344 162.238281 221.558594 162.5625 220.964844 162.871094 C 220.761719 162.976562 220.5625 163.078125 220.359375 163.179688 C 210.433594 168.25 199.046875 171.140625 186.929688 171.140625 L 179.320312 171.140625 L 306.761719 313.730469 L 364.90625 313.730469 L 259.097656 194.53125 " fill-opacity="1" fill-rule="nonzero"/></g></svg>